<?xml version="1.0" encoding="utf-8"?>
<!-- Generator: Adobe Illustrator 27.0.0, SVG Export Plug-In . SVG Version: 6.00 Build 0)  -->
<svg version="1.1" id="Layer_1" xmlns="http://www.w3.org/2000/svg" xmlns:xlink="http://www.w3.org/1999/xlink" x="0px" y="0px"
	 viewBox="0 0 606.4 287.8" style="enable-background:new 0 0 606.4 287.8;" xml:space="preserve">
<style type="text/css">
	.st0{fill:none;stroke:#963D97;stroke-width:3;stroke-miterlimit:10;}
	.st1{fill:none;stroke:#019FDF;stroke-width:3;stroke-miterlimit:10;}
	.st2{fill:none;stroke:#7D7D7D;stroke-width:3;stroke-miterlimit:10;}
	.st3{fill:none;stroke:#E03A3E;stroke-width:3;stroke-miterlimit:10;}
	.st4{fill:none;stroke:#FDB827;stroke-width:3;stroke-miterlimit:10;}
	.st5{fill:none;stroke:#34B2E5;stroke-width:3;stroke-miterlimit:10;}
	.st6{fill:none;stroke:#015070;stroke-width:3;stroke-miterlimit:10;}
	.st7{fill:none;stroke:#0177A7;stroke-width:3;stroke-miterlimit:10;}
	.st8{fill:none;stroke:#67C5EC;stroke-width:3;stroke-miterlimit:10;}
	.st9{fill:none;stroke:#AB64AC;stroke-width:3;stroke-miterlimit:10;}
	.st10{fill:none;stroke:#4B1F4C;stroke-width:3;stroke-miterlimit:10;}
	.st11{fill:none;stroke:#C08BC1;stroke-width:3;stroke-miterlimit:10;}
	.st12{fill:none;stroke:#FDC652;stroke-width:3;stroke-miterlimit:10;}
	.st13{fill:url(#SVGID_1_);}
	.st14{fill:url(#SVGID_00000164492180309718500230000000098113948082089885_);}
	.st15{fill:url(#SVGID_00000044143082719305567680000011553529123968205195_);}
	.st16{fill:url(#SVGID_00000096058566873476523440000001418579961638281151_);}
	.st17{fill:url(#SVGID_00000042001993793727759130000008525403225178514338_);}
	.st18{fill:url(#SVGID_00000046324373660306963060000014533945097979554958_);}
	.st19{fill:url(#SVGID_00000031888232272922204840000015754513452537249197_);}
	.st20{fill:url(#SVGID_00000020394807747117686910000002213332401023553457_);}
</style>
<g>
	<linearGradient id="SVGID_1_" gradientUnits="userSpaceOnUse" x1="46.7949" y1="113.6202" x2="594.8135" y2="113.6202">
		<stop  offset="0" style="stop-color:#963D97"/>
		<stop  offset="0.8658" style="stop-color:#019FDF"/>
	</linearGradient>
	<path class="st13" d="M180.2,3.5l209.4,90.8c0.5,0.2,1.1,0.4,1.7,0.5l197.1,37.6c5.5,1.1,8.3,7.4,5.3,12.1l-7.5,11.8
		c-1,1.5-2.4,2.6-4,3.2l-139.3,50.1c-1,0.4-2,0.5-3.1,0.5L262,201.6c-0.7,0-1.5,0-2.2,0.2l-97,22.4c-1.2,0.3-2.5,0.3-3.7,0
		L52.9,197.8c-3.6-0.9-6.1-4.1-6.1-7.8v-128c0-3.2,1.9-6.1,4.9-7.4L173.9,3.4C175.9,2.6,178.2,2.6,180.2,3.5z"/>
</g>
<g>
	
		<linearGradient id="SVGID_00000003793985295247535640000014844582264525904542_" gradientUnits="userSpaceOnUse" x1="16.8448" y1="150.2975" x2="515.0348" y2="150.2975">
		<stop  offset="0" style="stop-color:#FCB627"/>
		<stop  offset="0.1626" style="stop-color:#FDB827"/>
		<stop  offset="1" style="stop-color:#E03A3E"/>
	</linearGradient>
	<path style="fill:url(#SVGID_00000003793985295247535640000014844582264525904542_);" d="M21.6,77.3l116.6-52.2
		c1.7-0.7,3.5-0.9,5.3-0.4L296,64.1c0.4,0.1,0.8,0.2,1.1,0.2l196.4,21.3c2.4,0.3,4.6,1.6,5.9,3.6l14.3,22.4c2.5,4,1.1,9.3-3.1,11.4
		l-62.3,31.7c-0.8,0.4-1.7,0.7-2.6,0.8l-260.7,35.1c-1,0.1-1.9,0.4-2.8,0.9L28.7,275.3c-5.3,2.9-11.8-1-11.8-7V84.6
		C16.8,81.4,18.7,78.6,21.6,77.3z"/>
</g>
</svg>
