<?xml version="1.0" encoding="utf-8"?>
<!-- Generator: Adobe Illustrator 27.0.0, SVG Export Plug-In . SVG Version: 6.00 Build 0)  -->
<svg version="1.1" id="Layer_1" xmlns="http://www.w3.org/2000/svg" xmlns:xlink="http://www.w3.org/1999/xlink" x="0px" y="0px"
	 viewBox="0 0 591.9 660.6" style="enable-background:new 0 0 591.9 660.6;" xml:space="preserve">
<style type="text/css">
	.st0{fill:none;stroke:#963D97;stroke-width:3;stroke-miterlimit:10;}
	.st1{fill:none;stroke:#019FDF;stroke-width:3;stroke-miterlimit:10;}
	.st2{fill:none;stroke:#7D7D7D;stroke-width:3;stroke-miterlimit:10;}
	.st3{fill:none;stroke:#E03A3E;stroke-width:3;stroke-miterlimit:10;}
	.st4{fill:none;stroke:#FDB827;stroke-width:3;stroke-miterlimit:10;}
	.st5{fill:none;stroke:#34B2E5;stroke-width:3;stroke-miterlimit:10;}
	.st6{fill:none;stroke:#015070;stroke-width:3;stroke-miterlimit:10;}
	.st7{fill:none;stroke:#0177A7;stroke-width:3;stroke-miterlimit:10;}
	.st8{fill:none;stroke:#67C5EC;stroke-width:3;stroke-miterlimit:10;}
	.st9{fill:none;stroke:#AB64AC;stroke-width:3;stroke-miterlimit:10;}
	.st10{fill:none;stroke:#4B1F4C;stroke-width:3;stroke-miterlimit:10;}
	.st11{fill:none;stroke:#C08BC1;stroke-width:3;stroke-miterlimit:10;}
	.st12{fill:none;stroke:#FDC652;stroke-width:3;stroke-miterlimit:10;}
	.st13{fill:url(#SVGID_1_);}
	.st14{fill:url(#SVGID_00000089573281145013636710000010908487529050367630_);}
	.st15{fill:url(#SVGID_00000007387657230578939460000012379227640082672822_);}
	.st16{fill:url(#SVGID_00000165198311119616335490000000830889106058765232_);}
	.st17{fill:url(#SVGID_00000181054152831882922530000000542938353430679221_);}
	.st18{fill:url(#SVGID_00000082335128740527059000000018431192505776099982_);}
	.st19{fill:url(#SVGID_00000120525601830289165810000015519787075563924376_);}
	.st20{fill:url(#SVGID_00000055664597676848996940000010881934219456062877_);}
</style>
<path class="st9" d="M106.2,30.8H48.6c-2.1,0-4.1,1.1-5.2,3L14.7,83.7c-1.1,1.9-1.1,4.1,0,6l28.8,49.9c1.1,1.9,3.1,3,5.2,3h57.6
	c2.1,0,4.1-1.1,5.2-3l28.8-49.9c1.1-1.9,1.1-4.1,0-6l-28.8-49.9C110.3,32,108.3,30.8,106.2,30.8z"/>
<path class="st2" d="M214.5,94.8h-57.6c-2.1,0-4.1,1.1-5.2,3L123,147.7c-1.1,1.9-1.1,4.1,0,6l28.8,49.9c1.1,1.9,3.1,3,5.2,3h57.6
	c2.1,0,4.1-1.1,5.2-3l28.8-49.9c1.1-1.9,1.1-4.1,0-6l-28.8-49.9C218.6,96,216.6,94.8,214.5,94.8z"/>
<path class="st10" d="M214.5,218h-57.6c-2.1,0-4.1,1.1-5.2,3L123,270.8c-1.1,1.9-1.1,4.1,0,6l28.8,49.9c1.1,1.9,3.1,3,5.2,3h57.6
	c2.1,0,4.1-1.1,5.2-3l28.8-49.9c1.1-1.9,1.1-4.1,0-6L219.7,221C218.6,219.1,216.6,218,214.5,218z"/>
<path class="st2" d="M322.8,30.8h-57.6c-2.1,0-4.1,1.1-5.2,3l-28.8,49.9c-1.1,1.9-1.1,4.1,0,6l28.8,49.9c1.1,1.9,3.1,3,5.2,3h57.6
	c2.1,0,4.1-1.1,5.2-3l28.8-49.9c1.1-1.9,1.1-4.1,0-6L328,33.8C326.9,32,324.9,30.8,322.8,30.8z"/>
<path class="st0" d="M431.1,94.8h-57.6c-2.1,0-4.1,1.1-5.2,3l-28.8,49.9c-1.1,1.9-1.1,4.1,0,6l28.8,49.9c1.1,1.9,3.1,3,5.2,3h57.6
	c2.1,0,4.1-1.1,5.2-3l28.8-49.9c1.1-1.9,1.1-4.1,0-6l-28.8-49.9C435.2,96,433.2,94.8,431.1,94.8z"/>
<path class="st11" d="M539.4,30.8h-57.6c-2.1,0-4.1,1.1-5.2,3l-28.8,49.9c-1.1,1.9-1.1,4.1,0,6l28.8,49.9c1.1,1.9,3.1,3,5.2,3h57.6
	c2.1,0,4.1-1.1,5.2-3l28.8-49.9c1.1-1.9,1.1-4.1,0-6l-28.8-49.9C543.5,32,541.5,30.8,539.4,30.8z"/>
<path class="st2" d="M431.1,218h-57.6c-2.1,0-4.1,1.1-5.2,3l-28.8,49.9c-1.1,1.9-1.1,4.1,0,6l28.8,49.9c1.1,1.9,3.1,3,5.2,3h57.6
	c2.1,0,4.1-1.1,5.2-3l28.8-49.9c1.1-1.9,1.1-4.1,0-6L436.3,221C435.2,219.1,433.2,218,431.1,218z"/>
<path class="st9" d="M539.4,282h-57.6c-2.1,0-4.1,1.1-5.2,3l-28.8,49.9c-1.1,1.9-1.1,4.1,0,6l28.8,49.9c1.1,1.9,3.1,3,5.2,3h57.6
	c2.1,0,4.1-1.1,5.2-3l28.8-49.9c1.1-1.9,1.1-4.1,0-6L544.6,285C543.5,283.1,541.5,282,539.4,282z"/>
<path class="st2" d="M322.8,157.4h-57.6c-2.1,0-4.1,1.1-5.2,3l-28.8,49.9c-1.1,1.9-1.1,4.1,0,6l28.8,49.9c1.1,1.9,3.1,3,5.2,3h57.6
	c2.1,0,4.1-1.1,5.2-3l28.8-49.9c1.1-1.9,1.1-4.1,0-6L328,160.4C326.9,158.5,324.9,157.4,322.8,157.4z"/>
<path class="st2" d="M106.2,284H48.6c-2.1,0-4.1,1.1-5.2,3l-28.8,49.9c-1.1,1.9-1.1,4.1,0,6l28.8,49.9c1.1,1.9,3.1,3,5.2,3h57.6
	c2.1,0,4.1-1.1,5.2-3l28.8-49.9c1.1-1.9,1.1-4.1,0-6L111.4,287C110.3,285.1,108.3,284,106.2,284z"/>
<path class="st2" d="M214.5,346.5h-57.6c-2.1,0-4.1,1.1-5.2,3L123,399.4c-1.1,1.9-1.1,4.1,0,6l28.8,49.9c1.1,1.9,3.1,3,5.2,3h57.6
	c2.1,0,4.1-1.1,5.2-3l28.8-49.9c1.1-1.9,1.1-4.1,0-6l-28.8-49.9C218.6,347.7,216.6,346.5,214.5,346.5z"/>
<path class="st0" d="M431.1,346.5h-57.6c-2.1,0-4.1,1.1-5.2,3l-28.8,49.9c-1.1,1.9-1.1,4.1,0,6l28.8,49.9c1.1,1.9,3.1,3,5.2,3h57.6
	c2.1,0,4.1-1.1,5.2-3l28.8-49.9c1.1-1.9,1.1-4.1,0-6l-28.8-49.9C435.2,347.7,433.2,346.5,431.1,346.5z"/>
<path class="st1" d="M431.1,469.7h-57.6c-2.1,0-4.1,1.1-5.2,3l-28.8,49.9c-1.1,1.9-1.1,4.1,0,6l28.8,49.9c1.1,1.9,3.1,3,5.2,3h57.6
	c2.1,0,4.1-1.1,5.2-3l28.8-49.9c1.1-1.9,1.1-4.1,0-6l-28.8-49.9C435.2,470.8,433.2,469.7,431.1,469.7z"/>
<path class="st2" d="M322.8,409.1h-57.6c-2.1,0-4.1,1.1-5.2,3l-28.8,49.9c-1.1,1.9-1.1,4.1,0,6l28.8,49.9c1.1,1.9,3.1,3,5.2,3h57.6
	c2.1,0,4.1-1.1,5.2-3l28.8-49.9c1.1-1.9,1.1-4.1,0-6L328,412.1C326.9,410.2,324.9,409.1,322.8,409.1z"/>
<path class="st2" d="M106.2,409.1H48.6c-2.1,0-4.1,1.1-5.2,3l-28.8,49.9c-1.1,1.9-1.1,4.1,0,6l28.8,49.9c1.1,1.9,3.1,3,5.2,3h57.6
	c2.1,0,4.1-1.1,5.2-3l28.8-49.9c1.1-1.9,1.1-4.1,0-6l-28.8-49.9C110.3,410.2,108.3,409.1,106.2,409.1z"/>
<path class="st3" d="M106.2,535.6H48.6c-2.1,0-4.1,1.1-5.2,3l-28.8,49.9c-1.1,1.9-1.1,4.1,0,6l28.8,49.9c1.1,1.9,3.1,3,5.2,3h57.6
	c2.1,0,4.1-1.1,5.2-3l28.8-49.9c1.1-1.9,1.1-4.1,0-6l-28.8-49.9C110.3,536.8,108.3,535.6,106.2,535.6z"/>
</svg>
