<?xml version="1.0" encoding="utf-8"?>
<!-- Generator: Adobe Illustrator 27.0.0, SVG Export Plug-In . SVG Version: 6.00 Build 0)  -->
<svg version="1.1" id="Layer_1" xmlns="http://www.w3.org/2000/svg" xmlns:xlink="http://www.w3.org/1999/xlink" x="0px" y="0px"
	 viewBox="0 0 558.8 260.3" style="enable-background:new 0 0 558.8 260.3;" xml:space="preserve">
<style type="text/css">
	.st0{fill:none;stroke:#963D97;stroke-width:3;stroke-miterlimit:10;}
	.st1{fill:none;stroke:#019FDF;stroke-width:3;stroke-miterlimit:10;}
	.st2{fill:none;stroke:#7D7D7D;stroke-width:3;stroke-miterlimit:10;}
	.st3{fill:none;stroke:#E03A3E;stroke-width:3;stroke-miterlimit:10;}
	.st4{fill:none;stroke:#FDB827;stroke-width:3;stroke-miterlimit:10;}
	.st5{fill:none;stroke:#34B2E5;stroke-width:3;stroke-miterlimit:10;}
	.st6{fill:none;stroke:#015070;stroke-width:3;stroke-miterlimit:10;}
	.st7{fill:none;stroke:#0177A7;stroke-width:3;stroke-miterlimit:10;}
	.st8{fill:none;stroke:#67C5EC;stroke-width:3;stroke-miterlimit:10;}
	.st9{fill:none;stroke:#AB64AC;stroke-width:3;stroke-miterlimit:10;}
	.st10{fill:none;stroke:#4B1F4C;stroke-width:3;stroke-miterlimit:10;}
	.st11{fill:none;stroke:#C08BC1;stroke-width:3;stroke-miterlimit:10;}
	.st12{fill:none;stroke:#FDC652;stroke-width:3;stroke-miterlimit:10;}
	.st13{fill:url(#SVGID_1_);}
	.st14{fill:url(#SVGID_00000176731671425870559290000015011931833093682610_);}
	.st15{fill:url(#SVGID_00000099631994703128149820000005990335261173206925_);}
	.st16{fill:url(#SVGID_00000067932782950447326420000018378764351469398206_);}
	.st17{fill:url(#SVGID_00000011003547378150574340000008752210647718825895_);}
	.st18{fill:url(#SVGID_00000059267461438981767250000004356020001935958149_);}
	.st19{fill:url(#SVGID_00000041288811705217679330000011832006242367611542_);}
	.st20{fill:url(#SVGID_00000054237629911174325300000011771728208096971158_);}
</style>
<g>
	<linearGradient id="SVGID_1_" gradientUnits="userSpaceOnUse" x1="120.2271" y1="137.5415" x2="445.9741" y2="137.5415">
		<stop  offset="0" style="stop-color:#FCB627"/>
		<stop  offset="0.1442" style="stop-color:#FAAD29"/>
		<stop  offset="0.3791" style="stop-color:#F4952D"/>
		<stop  offset="0.6754" style="stop-color:#EC6D34"/>
		<stop  offset="1" style="stop-color:#E03A3E"/>
	</linearGradient>
	<path class="st13" d="M134.5,160l40.2,10.3c0.4,0.1,0.7,0.2,1.1,0.2L316.7,186c1.2,0.1,2.4,0,3.6-0.4l120.4-43
		c7.9-2.8,6.7-14.4-1.7-15.5l-309.7-38c-5.3-0.6-9.7,3.9-8.9,9.1l8.3,55.2C129.1,156.6,131.4,159.2,134.5,160z"/>
</g>
<linearGradient id="SVGID_00000067937519156633832880000011839937117621247889_" gradientUnits="userSpaceOnUse" x1="299.634" y1="237.292" x2="234.9592" y2="-69.0079">
	<stop  offset="0" style="stop-color:#963D97"/>
	<stop  offset="0.1252" style="stop-color:#914099"/>
	<stop  offset="0.2701" style="stop-color:#8349A0"/>
	<stop  offset="0.4247" style="stop-color:#6C59AB"/>
	<stop  offset="0.5861" style="stop-color:#4C6EBB"/>
	<stop  offset="0.7511" style="stop-color:#2289CF"/>
	<stop  offset="0.8658" style="stop-color:#019FDF"/>
</linearGradient>
<path style="fill:url(#SVGID_00000067937519156633832880000011839937117621247889_);" d="M26.7,30.9l50.7-16.2
	c1.2-0.4,2.5-0.5,3.8-0.3l96.5,17.1l155,22.1c0.6,0.1,1.2,0.1,1.8,0l129.6-11.6c1.3-0.1,2.6,0.1,3.7,0.6L537,70.9
	c2.1,0.8,3.7,2.5,4.5,4.6l9.3,25.3c1.3,3.4,0.1,7.2-2.9,9.3l-50.1,35.2c-1.5,1.1-3.4,1.6-5.3,1.4l-120.1-10.3
	c-0.8-0.1-1.6,0-2.4,0.1l-133.4,28.5c-0.7,0.1-1.3,0.4-2,0.7L177.4,195c-0.2,0.1-0.5,0.2-0.8,0.3L32,251.1c-5.2,2-10.9-1.8-10.9-7.5
	V38.5C21.1,35,23.4,31.9,26.7,30.9z"/>
</svg>
