<?xml version="1.0" encoding="utf-8"?>
<!-- Generator: Adobe Illustrator 27.0.0, SVG Export Plug-In . SVG Version: 6.00 Build 0)  -->
<svg version="1.1" id="Layer_1" xmlns="http://www.w3.org/2000/svg" xmlns:xlink="http://www.w3.org/1999/xlink" x="0px" y="0px"
	 viewBox="0 0 480.4 392.4" style="enable-background:new 0 0 480.4 392.4;" xml:space="preserve">
<style type="text/css">
	.st0{fill:none;stroke:#963D97;stroke-width:3;stroke-miterlimit:10;}
	.st1{fill:none;stroke:#019FDF;stroke-width:3;stroke-miterlimit:10;}
	.st2{fill:none;stroke:#7D7D7D;stroke-width:3;stroke-miterlimit:10;}
	.st3{fill:none;stroke:#E03A3E;stroke-width:3;stroke-miterlimit:10;}
	.st4{fill:none;stroke:#FDB827;stroke-width:3;stroke-miterlimit:10;}
	.st5{fill:none;stroke:#34B2E5;stroke-width:3;stroke-miterlimit:10;}
	.st6{fill:none;stroke:#015070;stroke-width:3;stroke-miterlimit:10;}
	.st7{fill:none;stroke:#0177A7;stroke-width:3;stroke-miterlimit:10;}
	.st8{fill:none;stroke:#67C5EC;stroke-width:3;stroke-miterlimit:10;}
	.st9{fill:none;stroke:#AB64AC;stroke-width:3;stroke-miterlimit:10;}
	.st10{fill:none;stroke:#4B1F4C;stroke-width:3;stroke-miterlimit:10;}
	.st11{fill:none;stroke:#C08BC1;stroke-width:3;stroke-miterlimit:10;}
	.st12{fill:none;stroke:#FDC652;stroke-width:3;stroke-miterlimit:10;}
	.st13{fill:url(#SVGID_1_);}
	.st14{fill:url(#SVGID_00000140724445710033440930000015575997280221604777_);}
	.st15{fill:url(#SVGID_00000054226674118619110930000002672599911937961647_);}
	.st16{fill:url(#SVGID_00000142885111930621490800000006029753415785731774_);}
	.st17{fill:url(#SVGID_00000098179393754843247610000011122595358723478670_);}
	.st18{fill:url(#SVGID_00000104707105292236244340000015471445073946903718_);}
	.st19{fill:url(#SVGID_00000013888994916983988330000007686706277373274268_);}
	.st20{fill:url(#SVGID_00000139276068121972480080000002970900226122885285_);}
</style>
<path class="st2" d="M215.9,10.6h-57.6c-2.1,0-4.1,1.1-5.2,3l-28.8,49.9c-1.1,1.9-1.1,4.1,0,6l28.8,49.9c1.1,1.9,3.1,3,5.2,3h57.6
	c2.1,0,4.1-1.1,5.2-3l28.8-49.9c1.1-1.9,1.1-4.1,0-6l-28.8-49.9C220.1,11.7,218.1,10.6,215.9,10.6z"/>
<path class="st5" d="M324.2,74.6h-57.6c-2.1,0-4.1,1.1-5.2,3l-28.8,49.9c-1.1,1.9-1.1,4.1,0,6l28.8,49.9c1.1,1.9,3.1,3,5.2,3h57.6
	c2.1,0,4.1-1.1,5.2-3l28.8-49.9c1.1-1.9,1.1-4.1,0-6l-28.8-49.9C328.3,75.7,326.4,74.6,324.2,74.6z"/>
<path class="st1" d="M324.2,201.2h-57.6c-2.1,0-4.1,1.1-5.2,3L232.7,254c-1.1,1.9-1.1,4.1,0,6l28.8,49.9c1.1,1.9,3.1,3,5.2,3h57.6
	c2.1,0,4.1-1.1,5.2-3l28.8-49.9c1.1-1.9,1.1-4.1,0-6l-28.8-49.9C328.3,202.3,326.4,201.2,324.2,201.2z"/>
<path class="st6" d="M107.6,74.6H50.1c-2.1,0-4.1,1.1-5.2,3l-28.8,49.9c-1.1,1.9-1.1,4.1,0,6l28.8,49.9c1.1,1.9,3.1,3,5.2,3h57.6
	c2.1,0,4.1-1.1,5.2-3l28.8-49.9c1.1-1.9,1.1-4.1,0-6l-28.8-49.9C111.8,75.7,109.8,74.6,107.6,74.6z"/>
<path class="st7" d="M432.5,10.6h-57.6c-2.1,0-4.1,1.1-5.2,3L341,63.4c-1.1,1.9-1.1,4.1,0,6l28.8,49.9c1.1,1.9,3.1,3,5.2,3h57.6
	c2.1,0,4.1-1.1,5.2-3l28.8-49.9c1.1-1.9,1.1-4.1,0-6l-28.8-49.9C436.6,11.7,434.6,10.6,432.5,10.6z"/>
<path class="st2" d="M432.5,137.2h-57.6c-2.1,0-4.1,1.1-5.2,3L341,190c-1.1,1.9-1.1,4.1,0,6l28.8,49.9c1.1,1.9,3.1,3,5.2,3h57.6
	c2.1,0,4.1-1.1,5.2-3l28.8-49.9c1.1-1.9,1.1-4.1,0-6l-28.8-49.9C436.6,138.3,434.6,137.2,432.5,137.2z"/>
<path class="st8" d="M215.9,137.2h-57.6c-2.1,0-4.1,1.1-5.2,3L124.4,190c-1.1,1.9-1.1,4.1,0,6l28.8,49.9c1.1,1.9,3.1,3,5.2,3h57.6
	c2.1,0,4.1-1.1,5.2-3l28.8-49.9c1.1-1.9,1.1-4.1,0-6l-28.8-49.9C220.1,138.3,218.1,137.2,215.9,137.2z"/>
<path class="st2" d="M432.5,263.7h-57.6c-2.1,0-4.1,1.1-5.2,3L341,316.6c-1.1,1.9-1.1,4.1,0,6l28.8,49.9c1.1,1.9,3.1,3,5.2,3h57.6
	c2.1,0,4.1-1.1,5.2-3l28.8-49.9c1.1-1.9,1.1-4.1,0-6l-28.8-49.9C436.6,264.9,434.6,263.7,432.5,263.7z"/>
</svg>
