<?xml version="1.0" encoding="utf-8"?>
<!-- Generator: Adobe Illustrator 27.0.0, SVG Export Plug-In . SVG Version: 6.00 Build 0)  -->
<svg version="1.1" id="Layer_1" xmlns="http://www.w3.org/2000/svg" xmlns:xlink="http://www.w3.org/1999/xlink" x="0px" y="0px"
	 viewBox="0 0 895.5 455.8" style="enable-background:new 0 0 895.5 455.8;" xml:space="preserve">
<style type="text/css">
	.st0{fill:none;stroke:#963D97;stroke-width:3;stroke-miterlimit:10;}
	.st1{fill:none;stroke:#019FDF;stroke-width:3;stroke-miterlimit:10;}
	.st2{fill:none;stroke:#7D7D7D;stroke-width:3;stroke-miterlimit:10;}
	.st3{fill:none;stroke:#E03A3E;stroke-width:3;stroke-miterlimit:10;}
	.st4{fill:none;stroke:#FDB827;stroke-width:3;stroke-miterlimit:10;}
	.st5{fill:none;stroke:#34B2E5;stroke-width:3;stroke-miterlimit:10;}
	.st6{fill:none;stroke:#015070;stroke-width:3;stroke-miterlimit:10;}
	.st7{fill:none;stroke:#0177A7;stroke-width:3;stroke-miterlimit:10;}
	.st8{fill:none;stroke:#67C5EC;stroke-width:3;stroke-miterlimit:10;}
	.st9{fill:none;stroke:#AB64AC;stroke-width:3;stroke-miterlimit:10;}
	.st10{fill:none;stroke:#4B1F4C;stroke-width:3;stroke-miterlimit:10;}
	.st11{fill:none;stroke:#C08BC1;stroke-width:3;stroke-miterlimit:10;}
	.st12{fill:none;stroke:#FDC652;stroke-width:3;stroke-miterlimit:10;}
	.st13{fill:url(#SVGID_1_);}
	.st14{fill:url(#SVGID_00000023997396293403709170000002027129203354773905_);}
	.st15{fill:url(#SVGID_00000005254186498001279560000005701725370656983717_);}
	.st16{fill:url(#SVGID_00000037681911207791157160000008242104217472194995_);}
	.st17{fill:url(#SVGID_00000148650879394014199380000005333362490727905449_);}
	.st18{fill:url(#SVGID_00000034076391590229739380000014078160840327328693_);}
	.st19{fill:url(#SVGID_00000183230019641288346980000005177365624982223752_);}
	.st20{fill:url(#SVGID_00000032639750363019919840000008460720238683284134_);}
</style>
<path class="st2" d="M200.6,11.5h-57.6c-2.1,0-4.1,1.1-5.2,3l-28.8,49.9c-1.1,1.9-1.1,4.1,0,6l28.8,49.9c1.1,1.9,3.1,3,5.2,3h57.6
	c2.1,0,4.1-1.1,5.2-3l28.8-49.9c1.1-1.9,1.1-4.1,0-6l-28.8-49.9C204.8,12.6,202.8,11.5,200.6,11.5z"/>
<path class="st2" d="M308.9,75.5h-57.6c-2.1,0-4.1,1.1-5.2,3l-28.8,49.9c-1.1,1.9-1.1,4.1,0,6l28.8,49.9c1.1,1.9,3.1,3,5.2,3h57.6
	c2.1,0,4.1-1.1,5.2-3l28.8-49.9c1.1-1.9,1.1-4.1,0-6l-28.8-49.9C313.1,76.6,311.1,75.5,308.9,75.5z"/>
<path class="st2" d="M525.5,75.5H468c-2.1,0-4.1,1.1-5.2,3L434,128.3c-1.1,1.9-1.1,4.1,0,6l28.8,49.9c1.1,1.9,3.1,3,5.2,3h57.6
	c2.1,0,4.1-1.1,5.2-3l28.8-49.9c1.1-1.9,1.1-4.1,0-6l-28.8-49.9C529.6,76.6,527.7,75.5,525.5,75.5z"/>
<path class="st2" d="M417.2,262.7h-57.6c-2.1,0-4.1,1.1-5.2,3l-28.8,49.9c-1.1,1.9-1.1,4.1,0,6l28.8,49.9c1.1,1.9,3.1,3,5.2,3h57.6
	c2.1,0,4.1-1.1,5.2-3l28.8-49.9c1.1-1.9,1.1-4.1,0-6l-28.8-49.9C421.4,263.8,419.4,262.7,417.2,262.7z"/>
<path class="st2" d="M417.2,138h-57.6c-2.1,0-4.1,1.1-5.2,3l-28.8,49.9c-1.1,1.9-1.1,4.1,0,6l28.8,49.9c1.1,1.9,3.1,3,5.2,3h57.6
	c2.1,0,4.1-1.1,5.2-3l28.8-49.9c1.1-1.9,1.1-4.1,0-6L422.4,141C421.4,139.2,419.4,138,417.2,138z"/>
<path class="st12" d="M525.5,198.6H468c-2.1,0-4.1,1.1-5.2,3L434,251.5c-1.1,1.9-1.1,4.1,0,6l28.8,49.9c1.1,1.9,3.1,3,5.2,3h57.6
	c2.1,0,4.1-1.1,5.2-3l28.8-49.9c1.1-1.9,1.1-4.1,0-6l-28.8-49.9C529.6,199.8,527.7,198.6,525.5,198.6z"/>
<path class="st3" d="M633.8,138h-57.6c-2.1,0-4.1,1.1-5.2,3l-28.8,49.9c-1.1,1.9-1.1,4.1,0,6l28.8,49.9c1.1,1.9,3.1,3,5.2,3h57.6
	c2.1,0,4.1-1.1,5.2-3l28.8-49.9c1.1-1.9,1.1-4.1,0-6L639,141C637.9,139.2,636,138,633.8,138z"/>
<path class="st2" d="M850.4,262.7h-57.6c-2.1,0-4.1,1.1-5.2,3l-28.8,49.9c-1.1,1.9-1.1,4.1,0,6l28.8,49.9c1.1,1.9,3.1,3,5.2,3h57.6
	c2.1,0,4.1-1.1,5.2-3l28.8-49.9c1.1-1.9,1.1-4.1,0-6l-28.8-49.9C854.5,263.8,852.5,262.7,850.4,262.7z"/>
<path class="st2" d="M525.5,325.2H468c-2.1,0-4.1,1.1-5.2,3L434,378.1c-1.1,1.9-1.1,4.1,0,6l28.8,49.9c1.1,1.9,3.1,3,5.2,3h57.6
	c2.1,0,4.1-1.1,5.2-3l28.8-49.9c1.1-1.9,1.1-4.1,0-6l-28.8-49.9C529.6,326.4,527.7,325.2,525.5,325.2z"/>
<path class="st2" d="M308.9,325.2h-57.6c-2.1,0-4.1,1.1-5.2,3l-28.8,49.9c-1.1,1.9-1.1,4.1,0,6l28.8,49.9c1.1,1.9,3.1,3,5.2,3h57.6
	c2.1,0,4.1-1.1,5.2-3l28.8-49.9c1.1-1.9,1.1-4.1,0-6l-28.8-49.9C313,326.4,311.1,325.2,308.9,325.2z"/>
<path class="st2" d="M92.3,198.6H34.8c-2.1,0-4.1,1.1-5.2,3L0.8,251.5c-1.1,1.9-1.1,4.1,0,6l28.8,49.9c1.1,1.9,3.1,3,5.2,3h57.6
	c2.1,0,4.1-1.1,5.2-3l28.8-49.9c1.1-1.9,1.1-4.1,0-6l-28.8-49.9C96.5,199.8,94.5,198.6,92.3,198.6z"/>
<path class="st2" d="M200.6,262.7h-57.6c-2.1,0-4.1,1.1-5.2,3l-28.8,49.9c-1.1,1.9-1.1,4.1,0,6l28.8,49.9c1.1,1.9,3.1,3,5.2,3h57.6
	c2.1,0,4.1-1.1,5.2-3l28.8-49.9c1.1-1.9,1.1-4.1,0-6l-28.8-49.9C204.8,263.8,202.8,262.7,200.6,262.7z"/>
<path class="st0" d="M200.6,138h-57.6c-2.1,0-4.1,1.1-5.2,3l-28.8,49.9c-1.1,1.9-1.1,4.1,0,6l28.8,49.9c1.1,1.9,3.1,3,5.2,3h57.6
	c2.1,0,4.1-1.1,5.2-3l28.8-49.9c1.1-1.9,1.1-4.1,0-6L205.8,141C204.8,139.2,202.8,138,200.6,138z"/>
</svg>
