<?xml version="1.0" encoding="utf-8"?>
<!-- Generator: Adobe Illustrator 27.0.0, SVG Export Plug-In . SVG Version: 6.00 Build 0)  -->
<svg version="1.1" id="Layer_1" xmlns="http://www.w3.org/2000/svg" xmlns:xlink="http://www.w3.org/1999/xlink" x="0px" y="0px"
	 viewBox="0 0 1014.1 823" style="enable-background:new 0 0 1014.1 823;" xml:space="preserve">
<style type="text/css">
	.st0{fill:none;stroke:#963D97;stroke-width:3;stroke-miterlimit:10;}
	.st1{fill:none;stroke:#019FDF;stroke-width:3;stroke-miterlimit:10;}
	.st2{fill:none;stroke:#7D7D7D;stroke-width:3;stroke-miterlimit:10;}
	.st3{fill:none;stroke:#E03A3E;stroke-width:3;stroke-miterlimit:10;}
	.st4{fill:none;stroke:#FDB827;stroke-width:3;stroke-miterlimit:10;}
	.st5{fill:none;stroke:#34B2E5;stroke-width:3;stroke-miterlimit:10;}
	.st6{fill:none;stroke:#015070;stroke-width:3;stroke-miterlimit:10;}
	.st7{fill:none;stroke:#0177A7;stroke-width:3;stroke-miterlimit:10;}
	.st8{fill:none;stroke:#67C5EC;stroke-width:3;stroke-miterlimit:10;}
	.st9{fill:none;stroke:#AB64AC;stroke-width:3;stroke-miterlimit:10;}
	.st10{fill:none;stroke:#4B1F4C;stroke-width:3;stroke-miterlimit:10;}
	.st11{fill:none;stroke:#C08BC1;stroke-width:3;stroke-miterlimit:10;}
	.st12{fill:none;stroke:#FDC652;stroke-width:3;stroke-miterlimit:10;}
	.st13{fill:url(#SVGID_1_);}
	.st14{fill:url(#SVGID_00000160870082265846999630000007547456014663469205_);}
	.st15{fill:url(#SVGID_00000049191394340860175310000001203523236221885351_);}
	.st16{fill:url(#SVGID_00000031920105388393224790000014827144985569842593_);}
	.st17{fill:url(#SVGID_00000007403786626840746630000001713261849826254240_);}
	.st18{fill:url(#SVGID_00000177484269772731045440000006314422383938458501_);}
	.st19{fill:url(#SVGID_00000050643279622044151460000003425281238654018455_);}
	.st20{fill:url(#SVGID_00000085251187406305861530000009283904718422286471_);}
</style>
<path class="st0" d="M424.8,74.1h-57.6c-2.1,0-4.1,1.1-5.2,3L333.2,127c-1.1,1.9-1.1,4.1,0,6l28.8,49.9c1.1,1.9,3.1,3,5.2,3h57.6
	c2.1,0,4.1-1.1,5.2-3l28.8-49.9c1.1-1.9,1.1-4.1,0-6L430,77.1C428.9,75.3,426.9,74.1,424.8,74.1z"/>
<path class="st1" d="M533.1,138.1h-57.6c-2.1,0-4.1,1.1-5.2,3L441.5,191c-1.1,1.9-1.1,4.1,0,6l28.8,49.9c1.1,1.9,3.1,3,5.2,3h57.6
	c2.1,0,4.1-1.1,5.2-3L567,197c1.1-1.9,1.1-4.1,0-6l-28.8-49.9C537.2,139.3,535.2,138.1,533.1,138.1z"/>
<path class="st1" d="M533.1,13.5h-57.6c-2.1,0-4.1,1.1-5.2,3l-28.8,49.9c-1.1,1.9-1.1,4.1,0,6l28.8,49.9c1.1,1.9,3.1,3,5.2,3h57.6
	c2.1,0,4.1-1.1,5.2-3L567,72.4c1.1-1.9,1.1-4.1,0-6l-28.8-49.9C537.2,14.7,535.2,13.5,533.1,13.5z"/>
<path class="st2" d="M641.3,74.1h-57.6c-2.1,0-4.1,1.1-5.2,3L549.8,127c-1.1,1.9-1.1,4.1,0,6l28.8,49.9c1.1,1.9,3.1,3,5.2,3h57.6
	c2.1,0,4.1-1.1,5.2-3l28.8-49.9c1.1-1.9,1.1-4.1,0-6l-28.8-49.9C645.5,75.3,643.5,74.1,641.3,74.1z"/>
<path class="st1" d="M749.6,138.1h-57.6c-2.1,0-4.1,1.1-5.2,3L658.1,191c-1.1,1.9-1.1,4.1,0,6l28.8,49.9c1.1,1.9,3.1,3,5.2,3h57.6
	c2.1,0,4.1-1.1,5.2-3l28.8-49.9c1.1-1.9,1.1-4.1,0-6l-28.8-49.9C753.8,139.3,751.8,138.1,749.6,138.1z"/>
<path class="st3" d="M749.6,13.5h-57.6c-2.1,0-4.1,1.1-5.2,3l-28.8,49.9c-1.1,1.9-1.1,4.1,0,6l28.8,49.9c1.1,1.9,3.1,3,5.2,3h57.6
	c2.1,0,4.1-1.1,5.2-3l28.8-49.9c1.1-1.9,1.1-4.1,0-6l-28.8-49.9C753.8,14.7,751.8,13.5,749.6,13.5z"/>
<path class="st2" d="M533.1,261.3h-57.6c-2.1,0-4.1,1.1-5.2,3l-28.8,49.9c-1.1,1.9-1.1,4.1,0,6l28.8,49.9c1.1,1.9,3.1,3,5.2,3h57.6
	c2.1,0,4.1-1.1,5.2-3l28.8-49.9c1.1-1.9,1.1-4.1,0-6l-28.8-49.9C537.2,262.4,535.2,261.3,533.1,261.3z"/>
<path class="st2" d="M641.4,325.3h-57.6c-2.1,0-4.1,1.1-5.2,3l-28.8,49.9c-1.1,1.9-1.1,4.1,0,6l28.8,49.9c1.1,1.9,3.1,3,5.2,3h57.6
	c2.1,0,4.1-1.1,5.2-3l28.8-49.9c1.1-1.9,1.1-4.1,0-6l-28.8-49.9C645.5,326.4,643.5,325.3,641.4,325.3z"/>
<path class="st1" d="M641.4,448.4h-57.6c-2.1,0-4.1,1.1-5.2,3l-28.8,49.9c-1.1,1.9-1.1,4.1,0,6l28.8,49.9c1.1,1.9,3.1,3,5.2,3h57.6
	c2.1,0,4.1-1.1,5.2-3l28.8-49.9c1.1-1.9,1.1-4.1,0-6l-28.8-49.9C645.5,449.6,643.5,448.4,641.4,448.4z"/>
<path class="st4" d="M641.4,200.7h-57.6c-2.1,0-4.1,1.1-5.2,3l-28.8,49.9c-1.1,1.9-1.1,4.1,0,6l28.8,49.9c1.1,1.9,3.1,3,5.2,3h57.6
	c2.1,0,4.1-1.1,5.2-3l28.8-49.9c1.1-1.9,1.1-4.1,0-6l-28.8-49.9C645.5,201.8,643.5,200.7,641.4,200.7z"/>
<path class="st1" d="M749.6,261.3h-57.6c-2.1,0-4.1,1.1-5.2,3l-28.8,49.9c-1.1,1.9-1.1,4.1,0,6l28.8,49.9c1.1,1.9,3.1,3,5.2,3h57.6
	c2.1,0,4.1-1.1,5.2-3l28.8-49.9c1.1-1.9,1.1-4.1,0-6l-28.8-49.9C753.8,262.4,751.8,261.3,749.6,261.3z"/>
<path class="st1" d="M749.6,512.5h-57.6c-2.1,0-4.1,1.1-5.2,3l-28.8,49.9c-1.1,1.9-1.1,4.1,0,6l28.8,49.9c1.1,1.9,3.1,3,5.2,3h57.6
	c2.1,0,4.1-1.1,5.2-3l28.8-49.9c1.1-1.9,1.1-4.1,0-6l-28.8-49.9C753.8,513.6,751.8,512.5,749.6,512.5z"/>
<path class="st2" d="M857.9,325.3h-57.6c-2.1,0-4.1,1.1-5.2,3l-28.8,49.9c-1.1,1.9-1.1,4.1,0,6l28.8,49.9c1.1,1.9,3.1,3,5.2,3h57.6
	c2.1,0,4.1-1.1,5.2-3l28.8-49.9c1.1-1.9,1.1-4.1,0-6l-28.8-49.9C862.1,326.4,860.1,325.3,857.9,325.3z"/>
<path class="st0" d="M857.9,200.7h-57.6c-2.1,0-4.1,1.1-5.2,3l-28.8,49.9c-1.1,1.9-1.1,4.1,0,6l28.8,49.9c1.1,1.9,3.1,3,5.2,3h57.6
	c2.1,0,4.1-1.1,5.2-3l28.8-49.9c1.1-1.9,1.1-4.1,0-6l-28.8-49.9C862.1,201.8,860.1,200.7,857.9,200.7z"/>
<path class="st2" d="M857.9,76.1h-57.6c-2.1,0-4.1,1.1-5.2,3l-28.8,49.9c-1.1,1.9-1.1,4.1,0,6l28.8,49.9c1.1,1.9,3.1,3,5.2,3h57.6
	c2.1,0,4.1-1.1,5.2-3l28.8-49.9c1.1-1.9,1.1-4.1,0-6l-28.8-49.9C862.1,77.2,860.1,76.1,857.9,76.1z"/>
<path class="st2" d="M966.2,261.3h-57.6c-2.1,0-4.1,1.1-5.2,3l-28.8,49.9c-1.1,1.9-1.1,4.1,0,6l28.8,49.9c1.1,1.9,3.1,3,5.2,3h57.6
	c2.1,0,4.1-1.1,5.2-3l28.8-49.9c1.1-1.9,1.1-4.1,0-6l-28.8-49.9C970.3,262.4,968.4,261.3,966.2,261.3z"/>
<path class="st2" d="M857.9,448.4h-57.6c-2.1,0-4.1,1.1-5.2,3l-28.8,49.9c-1.1,1.9-1.1,4.1,0,6l28.8,49.9c1.1,1.9,3.1,3,5.2,3h57.6
	c2.1,0,4.1-1.1,5.2-3l28.8-49.9c1.1-1.9,1.1-4.1,0-6l-28.8-49.9C862.1,449.6,860.1,448.4,857.9,448.4z"/>
<path class="st1" d="M966.2,512.5h-57.6c-2.1,0-4.1,1.1-5.2,3l-28.8,49.9c-1.1,1.9-1.1,4.1,0,6l28.8,49.9c1.1,1.9,3.1,3,5.2,3h57.6
	c2.1,0,4.1-1.1,5.2-3l28.8-49.9c1.1-1.9,1.1-4.1,0-6l-28.8-49.9C970.4,513.6,968.4,512.5,966.2,512.5z"/>
<path class="st4" d="M966.2,387.8h-57.6c-2.1,0-4.1,1.1-5.2,3l-28.8,49.9c-1.1,1.9-1.1,4.1,0,6l28.8,49.9c1.1,1.9,3.1,3,5.2,3h57.6
	c2.1,0,4.1-1.1,5.2-3l28.8-49.9c1.1-1.9,1.1-4.1,0-6l-28.8-49.9C970.4,389,968.4,387.8,966.2,387.8z"/>
<path class="st2" d="M208.2,573h-57.6c-2.1,0-4.1,1.1-5.2,3l-28.8,49.9c-1.1,1.9-1.1,4.1,0,6l28.8,49.9c1.1,1.9,3.1,3,5.2,3h57.6
	c2.1,0,4.1-1.1,5.2-3l28.8-49.9c1.1-1.9,1.1-4.1,0-6L213.4,576C212.3,574.2,210.3,573,208.2,573z"/>
<path class="st2" d="M316.5,637.1h-57.6c-2.1,0-4.1,1.1-5.2,3l-28.8,49.9c-1.1,1.9-1.1,4.1,0,6l28.8,49.9c1.1,1.9,3.1,3,5.2,3h57.6
	c2.1,0,4.1-1.1,5.2-3l28.8-49.9c1.1-1.9,1.1-4.1,0-6l-28.8-49.9C320.6,638.2,318.6,637.1,316.5,637.1z"/>
<path class="st2" d="M99.9,637.1H42.3c-2.1,0-4.1,1.1-5.2,3L8.3,689.9c-1.1,1.9-1.1,4.1,0,6l28.8,49.9c1.1,1.9,3.1,3,5.2,3h57.6
	c2.1,0,4.1-1.1,5.2-3l28.8-49.9c1.1-1.9,1.1-4.1,0-6l-28.8-49.9C104,638.2,102,637.1,99.9,637.1z"/>
<path class="st2" d="M424.8,573h-57.6c-2.1,0-4.1,1.1-5.2,3l-28.8,49.9c-1.1,1.9-1.1,4.1,0,6l28.8,49.9c1.1,1.9,3.1,3,5.2,3h57.6
	c2.1,0,4.1-1.1,5.2-3l28.8-49.9c1.1-1.9,1.1-4.1,0-6L430,576C428.9,574.2,426.9,573,424.8,573z"/>
<path class="st2" d="M424.8,699.6h-57.6c-2.1,0-4.1,1.1-5.2,3l-28.8,49.9c-1.1,1.9-1.1,4.1,0,6l28.8,49.9c1.1,1.9,3.1,3,5.2,3h57.6
	c2.1,0,4.1-1.1,5.2-3l28.8-49.9c1.1-1.9,1.1-4.1,0-6L430,702.6C428.9,700.8,426.9,699.6,424.8,699.6z"/>
<path class="st2" d="M208.2,699.6h-57.6c-2.1,0-4.1,1.1-5.2,3l-28.8,49.9c-1.1,1.9-1.1,4.1,0,6l28.8,49.9c1.1,1.9,3.1,3,5.2,3h57.6
	c2.1,0,4.1-1.1,5.2-3l28.8-49.9c1.1-1.9,1.1-4.1,0-6l-28.8-49.9C212.3,700.8,210.3,699.6,208.2,699.6z"/>
</svg>
