<svg width="127" height="126" viewBox="0 0 127 126" fill="none" xmlns="http://www.w3.org/2000/svg">
<g clip-path="url(#clip0_1_241)">
<path d="M0.154175 0.75V70.2582H15.9227V92.8637H34.8428V99.7411C30.8957 102.238 28.2575 106.639 28.2575 111.653C28.2575 119.437 34.571 125.75 42.3545 125.75C50.1381 125.75 56.4515 119.437 56.4515 111.653C56.4515 106.669 53.8536 102.289 49.9467 99.7813V77.7498H31.0266V55.1442H15.2581V15.8539H111.742V55.1543H95.9734V77.7598H77.0532V99.882C73.2269 102.399 70.7096 106.729 70.7096 111.653C70.7096 119.437 77.023 125.75 84.8066 125.75C92.5901 125.75 98.9036 119.437 98.9036 111.653C98.9036 106.568 96.1949 102.117 92.1572 99.6404V92.8637H111.077V70.2582H126.846V0.75H0.154175Z" fill="#0077FF"/>
</g>
<defs>
<clipPath id="clip0_1_241">
<rect width="126.692" height="125" fill="white" transform="translate(0.154175 0.75)"/>
</clipPath>
</defs>
</svg>
