<?xml version="1.0" encoding="utf-8"?>
<!-- Generator: Adobe Illustrator 27.0.0, SVG Export Plug-In . SVG Version: 6.00 Build 0)  -->
<svg version="1.1" id="Layer_1" xmlns="http://www.w3.org/2000/svg" xmlns:xlink="http://www.w3.org/1999/xlink" x="0px" y="0px"
	 viewBox="0 0 483.5 274.2" style="enable-background:new 0 0 483.5 274.2;" xml:space="preserve">
<style type="text/css">
	.st0{fill:none;stroke:#963D97;stroke-width:3;stroke-miterlimit:10;}
	.st1{fill:none;stroke:#019FDF;stroke-width:3;stroke-miterlimit:10;}
	.st2{fill:none;stroke:#7D7D7D;stroke-width:3;stroke-miterlimit:10;}
	.st3{fill:none;stroke:#E03A3E;stroke-width:3;stroke-miterlimit:10;}
	.st4{fill:none;stroke:#FDB827;stroke-width:3;stroke-miterlimit:10;}
	.st5{fill:none;stroke:#34B2E5;stroke-width:3;stroke-miterlimit:10;}
	.st6{fill:none;stroke:#015070;stroke-width:3;stroke-miterlimit:10;}
	.st7{fill:none;stroke:#0177A7;stroke-width:3;stroke-miterlimit:10;}
	.st8{fill:none;stroke:#67C5EC;stroke-width:3;stroke-miterlimit:10;}
	.st9{fill:none;stroke:#AB64AC;stroke-width:3;stroke-miterlimit:10;}
	.st10{fill:none;stroke:#4B1F4C;stroke-width:3;stroke-miterlimit:10;}
	.st11{fill:none;stroke:#C08BC1;stroke-width:3;stroke-miterlimit:10;}
	.st12{fill:none;stroke:#FDC652;stroke-width:3;stroke-miterlimit:10;}
	.st13{fill:url(#SVGID_1_);}
	.st14{fill:url(#SVGID_00000101805522229864269380000005323969897496343734_);}
	.st15{fill:url(#SVGID_00000171706734956907325540000004210962476038606508_);}
	.st16{fill:url(#SVGID_00000029761995195267640160000017941490237800978570_);}
	.st17{fill:url(#SVGID_00000017490596763401055840000015617918291604913030_);}
	.st18{fill:url(#SVGID_00000013895972619133233540000010190021124809751486_);}
	.st19{fill:url(#SVGID_00000127738226341902037760000004388477972761363643_);}
	.st20{fill:url(#SVGID_00000103260935458167357420000011049110658178897565_);}
</style>
<g>
	<linearGradient id="SVGID_1_" gradientUnits="userSpaceOnUse" x1="239.0432" y1="38.6175" x2="346.7351" y2="225.1455">
		<stop  offset="0" style="stop-color:#963D97"/>
		<stop  offset="0.1305" style="stop-color:#924099"/>
		<stop  offset="0.2741" style="stop-color:#8449A0"/>
		<stop  offset="0.4238" style="stop-color:#6E57AA"/>
		<stop  offset="0.5779" style="stop-color:#4F6BB9"/>
		<stop  offset="0.7337" style="stop-color:#2885CC"/>
		<stop  offset="0.8658" style="stop-color:#019FDF"/>
	</linearGradient>
	<path class="st13" d="M186.5,76.2l129.8-11.7c1.4-0.1,2.7-0.6,3.8-1.4l79.2-54.8c2.5-1.7,5.8-1.9,8.5-0.4l65.6,37.2
		c2.7,1.5,4.2,4.4,4,7.5L475,89.7c0,0.6-0.1,1.1-0.3,1.7L459,145.5c-0.4,1.5-1.3,2.8-2.4,3.8l-40,35.3c-1.2,1-2.6,1.7-4.2,1.9
		l-16.4,2.4c-0.7,0.1-1.4,0.1-2.1,0l-318.8-39c-7.8-1-9.7-11.4-2.7-15L183.6,77C184.5,76.6,185.5,76.3,186.5,76.2z"/>
</g>
<g>
	
		<linearGradient id="SVGID_00000167390208408884841460000006426246486153108150_" gradientUnits="userSpaceOnUse" x1="234.6537" y1="265.4578" x2="234.6537" y2="65.265">
		<stop  offset="0" style="stop-color:#FCB627"/>
		<stop  offset="1" style="stop-color:#E03A3E"/>
	</linearGradient>
	<path style="fill:url(#SVGID_00000167390208408884841460000006426246486153108150_);" d="M10.9,168.3l36.9-26.5
		c1.1-0.8,2.4-1.3,3.7-1.4l172.6-20.1c0.6-0.1,1.1-0.2,1.7-0.4l156.6-54.2c2.5-0.9,5.3-0.4,7.4,1.1l68.7,51.3c2.5,1.9,3.7,5.1,3,8.2
		l-23.4,102.6c-0.7,3.2-3.3,5.6-6.6,6.1l-192.2,30.3c-1.4,0.2-2.7,0.1-4-0.4L12.8,182.3C6.8,180.1,5.7,172.1,10.9,168.3z"/>
</g>
</svg>
