<?xml version="1.0" encoding="utf-8"?>
<!-- Generator: Adobe Illustrator 27.0.0, SVG Export Plug-In . SVG Version: 6.00 Build 0)  -->
<svg version="1.1" id="Layer_1" xmlns="http://www.w3.org/2000/svg" xmlns:xlink="http://www.w3.org/1999/xlink" x="0px" y="0px"
	 viewBox="0 0 1033.1 497.3" style="enable-background:new 0 0 1033.1 497.3;" xml:space="preserve">
<style type="text/css">
	.st0{fill:none;stroke:#963D97;stroke-width:3;stroke-miterlimit:10;}
	.st1{fill:none;stroke:#019FDF;stroke-width:3;stroke-miterlimit:10;}
	.st2{fill:none;stroke:#7D7D7D;stroke-width:3;stroke-miterlimit:10;}
	.st3{fill:none;stroke:#E03A3E;stroke-width:3;stroke-miterlimit:10;}
	.st4{fill:none;stroke:#FDB827;stroke-width:3;stroke-miterlimit:10;}
	.st5{fill:none;stroke:#34B2E5;stroke-width:3;stroke-miterlimit:10;}
	.st6{fill:none;stroke:#015070;stroke-width:3;stroke-miterlimit:10;}
	.st7{fill:none;stroke:#0177A7;stroke-width:3;stroke-miterlimit:10;}
	.st8{fill:none;stroke:#67C5EC;stroke-width:3;stroke-miterlimit:10;}
	.st9{fill:none;stroke:#AB64AC;stroke-width:3;stroke-miterlimit:10;}
	.st10{fill:none;stroke:#4B1F4C;stroke-width:3;stroke-miterlimit:10;}
	.st11{fill:none;stroke:#C08BC1;stroke-width:3;stroke-miterlimit:10;}
	.st12{fill:none;stroke:#FDC652;stroke-width:3;stroke-miterlimit:10;}
	.st13{fill:url(#SVGID_1_);}
	.st14{fill:url(#SVGID_00000090292167394250661920000011612603060068774832_);}
	.st15{fill:url(#SVGID_00000007405657037429769600000015612826063616533681_);}
	.st16{fill:url(#SVGID_00000099648865045136026160000015659501816024816516_);}
	.st17{fill:url(#SVGID_00000070110178862574246200000016188373539643473309_);}
	.st18{fill:url(#SVGID_00000176751532604813902790000016661469894283889792_);}
	.st19{fill:url(#SVGID_00000131344695798412876720000001119987634735207593_);}
	.st20{fill:url(#SVGID_00000069382464002196591320000016426572887321128336_);}
</style>
<linearGradient id="SVGID_1_" gradientUnits="userSpaceOnUse" x1="284.1546" y1="-33.6505" x2="627.852" y2="561.6509">
	<stop  offset="0" style="stop-color:#963D97"/>
	<stop  offset="0.8658" style="stop-color:#019FDF"/>
</linearGradient>
<path class="st13" d="M21.1,118.8l292.6-52c1.3-0.2,2.7-0.1,3.9,0.3l152.6,51.2c0.6,0.2,1.2,0.5,1.7,0.8l132.6,84.2
	c0.8,0.5,1.7,0.9,2.7,1.1l220.7,45.1c0.7,0.1,1.3,0.3,1.9,0.6l185.7,57.1c0.7,0.2,1.4,0.5,2,1c4.1,2.9,4.6,9.1,0.6,12.5l-58,48.9
	c-0.8,0.7-1.8,1.3-2.9,1.6l-199.6,44.4c-0.8,0.2-1.6,0.2-2.3,0.2c-17-1.4-177.6-24.5-198.2-27.5c-1.4-0.2-2.9,0-4.2,0.5l-88,36.4
	c-0.4,0.2-0.8,0.3-1.3,0.4L229,479.1c-1,0.2-2.1,0.3-3.2,0.1l-200-36c-3.8-0.7-6.5-3.9-6.6-7.7l-4.8-308.6
	C14.4,122.9,17.2,119.5,21.1,118.8z"/>
<linearGradient id="SVGID_00000121271799378998277290000011304404951593069206_" gradientUnits="userSpaceOnUse" x1="488.5823" y1="510.8804" x2="151.6557" y2="-72.6937">
	<stop  offset="0" style="stop-color:#FCB627"/>
	<stop  offset="0.1457" style="stop-color:#FBB028"/>
	<stop  offset="0.3456" style="stop-color:#F79E2B"/>
	<stop  offset="0.577" style="stop-color:#F08131"/>
	<stop  offset="0.8301" style="stop-color:#E75938"/>
	<stop  offset="1" style="stop-color:#E03A3E"/>
</linearGradient>
<path style="fill:url(#SVGID_00000121271799378998277290000011304404951593069206_);" d="M26.4,4.3l150,88.7c0.8,0.5,1.6,0.8,2.5,1
	l284.5,57.4c0.5,0.1,1.1,0.3,1.6,0.5l167.7,71.7c0.7,0.3,1.4,0.5,2.1,0.6l114.4,15.4c1.5,0.2,2.9,0.8,4.1,1.8l73.9,61.7
	c4.9,4.1,3.2,12.1-3,13.8L652,364.8c-1,0.3-2.1,0.4-3.1,0.2l-184.6-22.6l-154-17.3c-1.1-0.1-2.2,0-3.2,0.3l-143.4,43.1
	c-1.1,0.3-2.1,0.9-3,1.7L27.7,488.5c-5.2,4.6-13.3,0.9-13.3-6V11.2C14.4,5,21.1,1.1,26.4,4.3z"/>
</svg>
