<svg width="418" height="423" viewBox="0 0 418 423" fill="none" xmlns="http://www.w3.org/2000/svg">
<g clip-path="url(#clip0_494_12128)">
<path d="M358.987 112.564C359.002 102.406 356.118 92.4596 350.681 83.9189C345.244 75.3777 337.485 68.6061 328.336 64.4159C319.187 60.2256 309.037 58.7958 299.104 60.2974C289.17 61.7995 279.878 66.1696 272.34 72.8824C264.802 79.5958 259.341 88.3667 256.611 98.1419C253.881 107.918 254 118.283 256.952 127.992C259.903 137.702 265.564 146.343 273.252 152.878C280.941 159.413 290.331 163.566 300.296 164.835V171.926C300.253 180.659 296.804 189.022 290.698 195.197C284.593 201.372 276.324 204.861 267.689 204.905H150.308C144.233 204.894 138.219 206.115 132.619 208.493C127.019 210.872 121.946 214.362 117.701 218.756V164.835C130.868 163.158 142.907 156.468 151.369 146.128C159.831 135.788 164.079 122.575 163.247 109.179C162.417 95.7831 156.569 83.2112 146.896 74.0221C137.223 64.8329 124.451 59.7178 111.18 59.7178C97.9093 59.7178 85.1372 64.8329 75.4646 74.0221C65.7913 83.2112 59.944 95.7831 59.1127 109.179C58.2817 122.575 62.5294 135.788 70.9908 146.128C79.4528 156.468 91.4922 163.158 104.659 164.835V258.165C91.4922 259.842 79.4528 266.532 70.9908 276.872C62.5294 287.212 58.2817 300.425 59.1127 313.821C59.944 327.217 65.7913 339.789 75.4646 348.978C85.1372 358.167 97.9093 363.282 111.18 363.282C124.451 363.282 137.223 358.167 146.896 348.978C156.569 339.789 162.417 327.217 163.247 313.821C164.079 300.425 159.831 287.212 151.369 276.872C142.907 266.532 130.868 259.842 117.701 258.165V251.075C117.744 242.341 121.193 233.978 127.299 227.803C133.404 221.628 141.673 218.139 150.308 218.096H267.689C279.783 218.053 291.369 213.174 299.921 204.525C308.472 195.876 313.295 184.158 313.338 171.926V164.835C325.946 163.264 337.549 157.081 345.959 147.451C354.368 137.822 359.002 125.413 358.987 112.564ZM72.0525 112.564C72.0525 104.737 74.3477 97.0859 78.6467 90.5778C82.9463 84.0702 89.0569 78.9978 96.2068 76.0024C103.356 73.007 111.224 72.2233 118.813 73.7503C126.404 75.2774 133.375 79.0464 138.848 84.581C144.32 90.1156 148.046 97.1672 149.555 104.844C151.066 112.52 150.291 120.477 147.329 127.709C144.368 134.94 139.353 141.121 132.918 145.469C126.483 149.817 118.919 152.139 111.18 152.139C100.816 152.096 90.8889 147.912 83.5601 140.5C76.232 133.087 72.0959 123.047 72.0525 112.564ZM150.308 310.436C150.308 318.263 148.012 325.914 143.713 332.422C139.414 338.93 133.303 344.002 126.153 346.998C119.004 349.993 111.137 350.777 103.547 349.25C95.9571 347.723 88.9848 343.954 83.5127 338.419C78.0411 332.884 74.3143 325.833 72.8047 318.157C71.2951 310.48 72.0695 302.523 75.0313 295.291C77.9925 288.06 83.0079 281.879 89.442 277.531C95.8768 273.183 103.441 270.862 111.18 270.862C121.544 270.905 131.471 275.088 138.8 282.501C146.128 289.913 150.265 299.953 150.308 310.436ZM306.817 152.139C299.078 152.139 291.513 149.817 285.079 145.469C278.644 141.121 273.629 134.94 270.668 127.709C267.706 120.477 266.931 112.52 268.442 104.844C269.951 97.1672 273.677 90.1156 279.15 84.581C284.622 79.0464 291.593 75.2774 299.184 73.7503C306.773 72.2233 314.641 73.007 321.79 76.0024C328.94 78.9978 335.051 84.0702 339.35 90.5778C343.649 97.0859 345.945 104.737 345.945 112.564C345.901 123.047 341.765 133.087 334.437 140.5C327.108 147.912 317.181 152.096 306.817 152.139Z" fill="url(#paint0_radial_494_12128)"/>
<path d="M82.3711 303.253L103.986 315.598M82.3711 303.253V302.651L101.562 291.335M82.3711 303.253V324.932L103.986 337.578M103.986 315.598L138.924 295.123M103.986 315.598V337.578M101.562 291.335L101.321 283.983L117.606 274.95V281.875M101.562 291.335L101.991 301.556L99.4862 303.253L101.991 304.936L121.191 293.953L119.522 292.264L117.606 293.016V281.875M103.986 337.578L138.924 316.802V295.123M138.924 295.123L117.606 281.875" stroke="#0077FF" stroke-width="8.58306"/>
</g>
<defs>
<radialGradient id="paint0_radial_494_12128" cx="0" cy="0" r="1" gradientUnits="userSpaceOnUse" gradientTransform="translate(101.5 355) rotate(-71.2948) scale(335.205 331.243)">
<stop stop-color="#001D40"/>
<stop offset="0.0828643" stop-color="#003B80"/>
<stop offset="0.171875" stop-color="#0077FF"/>
<stop offset="0.223958" stop-color="#00A780"/>
<stop offset="0.997861" stop-color="#00DEAA"/>
</radialGradient>
<clipPath id="clip0_494_12128">
<rect width="418" height="423" fill="white"/>
</clipPath>
</defs>
</svg>