<svg width="142" height="101" viewBox="0 0 142 101" fill="none" xmlns="http://www.w3.org/2000/svg">
<g clip-path="url(#clip0_1_862)">
<path d="M134.788 72.9439V34.237H101.069V0.272705H7.64754V72.1251C3.27807 74.7197 0.33667 79.473 0.33667 84.9175C0.33667 93.1374 7.01876 99.8048 15.2568 99.8048C23.4949 99.8048 30.1769 93.1374 30.1769 84.9175C30.1769 79.7921 27.5872 75.2727 23.6334 72.6036V16.2234H85.083V34.237H68.948C66.2837 30.1855 61.6904 27.4952 56.4684 27.4952C48.2303 27.4952 41.5482 34.1625 41.5482 42.3824C41.5482 50.6023 48.2303 57.2697 56.4684 57.2697C61.8396 57.2697 66.5288 54.4305 69.1611 50.1876H85.083V77.5058H69.1185C66.4862 73.3055 61.8076 70.4981 56.479 70.4981C48.241 70.4981 41.5589 77.1655 41.5589 85.3854C41.5589 93.6053 48.241 100.273 56.479 100.273C61.733 100.273 66.3476 97.5611 69.0013 93.4565H101.08V50.1876H118.813V72.6993C114.54 75.3152 111.684 80.0047 111.684 85.3748C111.684 93.5947 118.366 100.262 126.604 100.262C134.842 100.262 141.524 93.5947 141.524 85.3748C141.524 80.1749 138.849 75.6023 134.799 72.9439H134.788Z" fill="#A801FF"/>
</g>
<defs>
<clipPath id="clip0_1_862">
<rect width="141.176" height="100" fill="white" transform="translate(0.33667 0.272705)"/>
</clipPath>
</defs>
</svg>
