<svg width="117" height="120" viewBox="0 0 117 120" fill="none" xmlns="http://www.w3.org/2000/svg">
<path fill-rule="evenodd" clip-rule="evenodd" d="M71.2293 114.551C63.9635 121.816 52.1832 121.816 44.9174 114.551L5.4494 75.0826C-1.81646 67.8168 -1.81646 56.0365 5.44939 48.7707L25.1834 29.0367C28.8163 25.4037 34.7064 25.4038 38.3394 29.0367C41.9723 32.6696 41.9723 38.5597 38.3394 42.1927L31.7614 48.7707C24.4955 56.0365 24.4955 67.8168 31.7614 75.0826L51.4953 94.8166C55.1283 98.4496 61.0184 98.4496 64.6513 94.8166C68.2843 91.1837 68.2843 85.2936 64.6513 81.6606L58.0733 75.0826C50.8075 67.8168 50.8075 56.0365 58.0733 48.7707C65.3392 41.5048 65.3392 29.7245 58.0733 22.4587L51.4953 15.8807C47.8624 12.2478 47.8624 6.35762 51.4953 2.72469C55.1283 -0.908234 61.0184 -0.90823 64.6513 2.7247L110.697 48.7707C117.963 56.0365 117.963 67.8168 110.697 75.0826L71.2293 114.551ZM90.9633 55.3487C87.3304 51.7157 81.4402 51.7157 77.8073 55.3487C74.1744 58.9816 74.1744 64.8717 77.8073 68.5046C81.4402 72.1376 87.3304 72.1376 90.9633 68.5046C94.5962 64.8717 94.5962 58.9816 90.9633 55.3487Z" fill="#1F1F1F"/>
</svg>
